<?xml version="1.0" encoding="UTF-8"?>
<svg version="1.1" xmlns="http://www.w3.org/2000/svg" width="512" height="512">
<path d="M0 0 C3.83103771 0.00914673 7.66200581 -0.00496631 11.49302912 -0.01591969 C18.97551495 -0.03360806 26.45783934 -0.02990846 33.94033122 -0.01826912 C40.02722614 -0.00919665 46.11407614 -0.00802719 52.20097589 -0.01236439 C53.07077843 -0.01297732 53.94058096 -0.01359025 54.83674115 -0.01422176 C56.60430965 -0.01550079 58.37187814 -0.01679765 60.13944662 -0.01811212 C76.67299805 -0.02948956 93.20646044 -0.01644891 109.73999727 0.00508934 C123.89407774 0.02295774 138.04802694 0.01985283 152.20210505 0.0014143 C168.68075228 -0.02004272 185.15932168 -0.02839118 201.63798094 -0.01613665 C203.3986643 -0.01486259 205.15934768 -0.01360511 206.92003107 -0.01236439 C207.78608302 -0.01174729 208.65213497 -0.01113018 209.54443091 -0.01049438 C215.6165699 -0.00705594 221.68865908 -0.01283714 227.76079035 -0.0222826 C235.17137584 -0.03355786 242.58179208 -0.03034736 249.99235845 -0.00915962 C253.76572374 0.00127708 257.53880796 0.00560063 261.31217051 -0.00775623 C293.95284128 -0.11378319 319.77835406 6.04094469 343.56050348 29.52289867 C362.95630366 48.88508395 370.04622158 73.79177426 370.10261774 100.44144726 C370.0948437 102.73292206 370.08665123 105.02439546 370.07808161 107.31586742 C370.08351257 109.7735234 370.09064065 112.23117611 370.09932184 114.68882275 C370.11556758 120.63125876 370.11332884 126.57350847 370.10167128 132.515939 C370.09258274 137.35188368 370.09143617 142.18777185 370.09576654 147.02372265 C370.09637948 147.71590206 370.09699241 148.40808148 370.09762391 149.12123603 C370.09890301 150.52803653 370.10019986 151.93483702 370.10151428 153.34163749 C370.11288001 166.48735 370.09986966 179.63295034 370.07831281 192.77864444 C370.06044546 204.02190246 370.06355071 215.2649952 370.08198786 226.50825024 C370.10346581 239.6116895 370.11178175 252.71503084 370.0995388 265.81848526 C370.09826481 267.21968172 370.09700732 268.6208782 370.09576654 270.0220747 C370.09484089 271.05579803 370.09484089 271.05579803 370.09389654 272.11040467 C370.09046432 276.93220219 370.09622561 281.75393683 370.10568476 286.5757246 C370.11817202 293.08320171 370.10909412 299.590442 370.08610773 306.09789181 C370.08085671 308.47412002 370.08227184 310.85037467 370.09115839 313.22659206 C370.19225964 343.02719524 362.97292538 367.78821624 341.56050348 389.52289867 C325.34802095 405.76249238 303.01913745 416.47225567 279.88015509 416.86361122 C276.15935138 416.8620707 272.44139788 416.81276943 268.72145891 416.73366642 C265.67947016 416.67365935 262.63886964 416.64801402 259.59634638 416.63192272 C250.96091388 416.58410327 242.32700627 416.50649865 233.69307184 416.33466625 C228.37553134 416.23127303 223.06068431 416.19204365 217.74218416 416.1930666 C215.73386075 416.18131055 213.72551814 416.14596252 211.71807146 416.08547306 C199.97945159 415.4598754 199.97945159 415.4598754 189.74302912 420.31467724 C187.09559489 422.96192864 184.83897394 425.80916453 182.70783663 428.88250446 C180.96399273 431.37575714 179.00456278 433.68459729 177.06050348 436.02289867 C176.34894098 436.90977367 175.63737848 437.79664867 174.90425348 438.71039867 C171.74312853 442.50374862 168.37638043 446.08414283 165.00190973 449.68696117 C161.88481795 453.03406737 158.92469235 456.45304008 156.06050348 460.02289867 C152.58551102 464.33646336 148.9782733 468.49296674 145.24800348 472.58539867 C144.74398005 473.14614086 144.23995661 473.70688305 143.72065973 474.28461742 C140.2149804 478.09024793 137.91467157 480.24092311 132.75581598 480.85883617 C131.74261286 480.8717268 130.72940973 480.88461742 129.68550348 480.89789867 C128.67745661 480.92625805 127.66940973 480.95461742 126.63081598 480.98383617 C120.26216154 480.02772775 116.39295236 475.57203809 112.24800348 470.96039867 C111.77290339 470.43373608 111.29780329 469.90707348 110.80830622 469.36445141 C107.0382195 465.15015698 103.48302479 460.77630173 99.93940973 456.37055492 C97.24921509 453.15027267 94.42794221 450.08467903 91.56050348 447.02289867 C87.89226365 443.10604265 84.36396614 439.14527174 80.99800348 434.96039867 C80.31281641 434.13636547 79.62762934 433.31233227 78.92167902 432.46332836 C76.56050348 429.52289867 76.56050348 429.52289867 74.46055841 426.41083813 C70.67950447 421.36988874 67.50626135 417.53661056 61.06239557 416.46015453 C55.54840994 415.95266194 50.04900849 416.12172902 44.52144098 416.27289867 C42.47040553 416.28302361 40.41933323 416.2872289 38.36827326 416.28583813 C32.98453538 416.29528326 27.60408365 416.37272001 22.22127008 416.46851635 C13.63154571 416.61068384 5.04090913 416.65132647 -3.54979849 416.68732738 C-6.52191716 416.70978187 -9.49220983 416.76271465 -12.46381903 416.82075024 C-38.67383136 417.17915789 -61.74035988 408.98080918 -81.06840277 390.85883617 C-100.95566773 371.26644005 -110.73510191 347.59414225 -110.97469759 319.87113476 C-110.98185149 316.49060166 -110.96971705 313.11044254 -110.95707464 309.72992992 C-110.9625056 307.27227395 -110.96963369 304.81462124 -110.97831488 302.3569746 C-110.99456062 296.41453859 -110.99232188 290.47228888 -110.98066431 284.52985835 C-110.97157577 279.69391367 -110.9704292 274.8580255 -110.97475958 270.0220747 C-110.97537251 269.32989528 -110.97598544 268.63771587 -110.97661695 267.92456132 C-110.97789604 266.51776082 -110.9791929 265.11096033 -110.98050731 263.70415986 C-110.99187304 250.55844735 -110.9788627 237.412847 -110.95730585 224.26715291 C-110.9394385 213.02389489 -110.94254374 201.78080215 -110.96098089 190.53754711 C-110.98245885 177.43410784 -110.99077478 164.33076651 -110.97853184 151.22731209 C-110.97725784 149.82611562 -110.97600035 148.42491914 -110.97475958 147.02372265 C-110.97414248 146.33457376 -110.97352537 145.64542487 -110.97288957 144.93539268 C-110.96945736 140.11359515 -110.97521865 135.29186052 -110.98467779 130.47007275 C-110.99716505 123.96259564 -110.98808715 117.45535535 -110.96510077 110.94790554 C-110.95984975 108.57167733 -110.96126487 106.19542268 -110.97015142 103.81920528 C-111.07125267 74.01860211 -103.85191842 49.25758111 -82.43949652 27.52289867 C-59.0239357 4.0681814 -31.58007182 -0.11178645 0 0 Z M116.54658747 104.07319164 C114.09146677 108.3375869 113.15834612 112.31203034 112.15815973 117.09321117 C111.8514963 118.46943142 111.8514963 118.46943142 111.53863764 119.87345409 C110.88808342 122.79577732 110.25376465 125.72124412 109.62300348 128.64789867 C101.52998862 166.10503267 101.52998862 166.10503267 84.44331598 177.95258617 C77.13196586 181.93519152 69.49380337 184.23208518 61.38862848 185.96039867 C59.48884377 186.3846758 57.58910552 186.80916104 55.68940973 187.23383617 C52.73897499 187.88292197 49.78770327 188.52784564 46.83540583 189.16840649 C43.95482038 189.79667252 41.07797226 190.44024979 38.20112848 191.08539867 C36.8837771 191.36371532 36.8837771 191.36371532 35.53981256 191.64765453 C29.17125293 193.08564144 24.65935637 195.20311391 20.18550348 200.14789867 C17.98142455 204.72560107 17.76333958 208.52842278 18.56050348 213.52289867 C20.94631222 218.4780399 23.84836493 220.81000079 28.56050348 223.52289867 C31.70247253 224.56506567 34.89304706 225.24792598 38.13081598 225.92524242 C39.50703623 226.23190586 39.50703623 226.23190586 40.9110589 226.54476452 C43.83338213 227.19531874 46.75884893 227.82963751 49.68550348 228.46039867 C87.14263748 236.55341353 87.14263748 236.55341353 98.99019098 253.64008617 C102.97279633 260.95143629 105.26968999 268.58959878 106.99800348 276.69477367 C107.42228061 278.59455839 107.84676585 280.49429664 108.27144098 282.39399242 C108.92052678 285.34442717 109.56545045 288.29569888 110.2060113 291.24799633 C110.83427732 294.12858177 111.4778546 297.00542989 112.12300348 299.88227367 C112.30854792 300.76050793 112.49409235 301.63874218 112.68525934 302.54358959 C114.12324625 308.91214922 116.24071872 313.42404579 121.18550348 317.89789867 C125.76320588 320.1019776 129.56602759 320.32006258 134.56050348 319.52289867 C139.51564471 317.13708993 141.8476056 314.23503722 144.56050348 309.52289867 C145.60267047 306.38092963 146.28553079 303.1903551 146.96284723 299.95258617 C147.16728952 299.03510601 147.37173182 298.11762585 147.58236933 297.17234325 C148.23292355 294.25002003 148.86724232 291.32455322 149.49800348 288.39789867 C157.59101834 250.94076468 157.59101834 250.94076468 174.67769098 239.09321117 C181.9890411 235.11060583 189.62720359 232.81371216 197.73237848 231.08539867 C199.6321632 230.66112155 201.53190145 230.23663631 203.43159723 229.81196117 C206.38203198 229.16287538 209.33330369 228.51795171 212.28560114 227.87739086 C215.16618658 227.24912483 218.0430347 226.60554756 220.91987848 225.96039867 C221.79811274 225.77485424 222.67634699 225.58930981 223.5811944 225.39814281 C229.94975403 223.96015591 234.4616506 221.84268344 238.93550348 216.89789867 C241.13958241 212.32019628 241.35766739 208.51737457 240.56050348 203.52289867 C238.17469474 198.56775745 235.27264203 196.23579656 230.56050348 193.52289867 C227.41853444 192.48073168 224.22795991 191.79787137 220.99019098 191.12055492 C220.07271082 190.91611263 219.15523066 190.71167034 218.20994806 190.50103283 C215.28762484 189.85047861 212.36215803 189.21615984 209.43550348 188.58539867 C171.97836949 180.49238382 171.97836949 180.49238382 160.13081598 163.40571117 C156.14821063 156.09436106 153.85131697 148.45619856 152.12300348 140.35102367 C151.69872636 138.45123896 151.27424111 136.55150071 150.84956598 134.65180492 C150.20048019 131.70137018 149.55555651 128.75009846 148.91499567 125.79780102 C148.28672964 122.91721558 147.64315237 120.04036746 146.99800348 117.16352367 C146.71968683 115.84617229 146.71968683 115.84617229 146.43574762 114.50220776 C144.99776072 108.13364813 142.88028825 103.62175156 137.93550348 99.14789867 C129.69014184 95.17790973 122.24082862 96.86237299 116.54658747 104.07319164 Z " fill="#000000" transform="translate(126.4394965171814,15.47710132598877)"/>
</svg>
