<svg width="514" height="514" viewBox="0 0 514 514" fill="none" xmlns="http://www.w3.org/2000/svg">
<circle cx="257" cy="257" r="257" fill="#09090B"/>
<path fill-rule="evenodd" clip-rule="evenodd" d="M257 64C310.295 64 353.5 107.205 353.5 160.5C406.795 160.5 450 203.705 450 257C450 310.295 406.796 353.5 353.5 353.5C353.5 406.796 310.295 450 257 450C203.705 450 160.5 406.796 160.5 353.5C107.205 353.5 64 310.295 64 257C64 203.705 107.205 160.5 160.5 160.5C160.5 107.205 203.705 64 257 64ZM257 329.375C296.972 329.375 329.375 296.972 329.375 257C329.375 217.028 296.972 184.625 257 184.625C217.028 184.625 184.625 217.028 184.625 257C184.625 296.972 217.028 329.375 257 329.375Z" fill="white"/>
</svg>
